<svg xmlns="http://www.w3.org/2000/svg" width="2249" height="2213" viewBox="0 0 2249 2213">
  <rect id="Dikdörtgen_1" data-name="Dikdörtgen 1" x="1095" width="1000" height="155"/>
  <rect id="Dikdörtgen_1-2" data-name="Dikdörtgen 1" x="995" y="282" width="1254" height="160"/>
  <rect id="Dikdörtgen_1-3" data-name="Dikdörtgen 1" x="995" y="432" width="1254" height="160"/>
  <rect id="Dikdörtgen_1-4" data-name="Dikdörtgen 1" x="995" y="742" width="1100" height="150"/>
  <rect id="Dikdörtgen_1-5" data-name="Dikdörtgen 1" x="850" y="882" width="550" height="160"/>
  <rect id="Dikdörtgen_1-6" data-name="Dikdörtgen 1" x="750" y="1032" width="650" height="160"/>
  <rect id="Dikdörtgen_1-7" data-name="Dikdörtgen 1" x="619" y="1169" width="775" height="150"/>
  <rect id="Dikdörtgen_1-8" data-name="Dikdörtgen 1" x="388" y="1308" width="1008" height="150"/>
  <rect id="Dikdörtgen_1-9" data-name="Dikdörtgen 1" x="287" y="1446" width="1008" height="160"/>
  <rect id="Dikdörtgen_1-10" data-name="Dikdörtgen 1" x="939" y="1746" width="250" height="153"/>
  <rect id="Dikdörtgen_1-11" data-name="Dikdörtgen 1" x="437" y="1746" width="300" height="150"/>
  <rect id="Dikdörtgen_1-12" data-name="Dikdörtgen 1" x="440" y="1723" width="175" height="150"/>
  <rect id="Dikdörtgen_1-13" data-name="Dikdörtgen 1" x="440" y="1867" width="100" height="150"/>
  <rect id="Dikdörtgen_1-14" data-name="Dikdörtgen 1" x="1087" y="1890" width="100" height="300"/>
  <rect id="Dikdörtgen_1-15" data-name="Dikdörtgen 1" x="287" y="1593" width="904" height="180"/>
  <rect id="Dikdörtgen_4" data-name="Dikdörtgen 4" x="241" y="1160" width="151" height="618"/>
  <rect id="Dikdörtgen_4-2" data-name="Dikdörtgen 4" x="95" y="1045" width="151" height="618"/>
  <rect id="Dikdörtgen_4-3" data-name="Dikdörtgen 4" y="883" width="100" height="700"/>
  <rect id="Dikdörtgen_2" data-name="Dikdörtgen 2" x="1344" y="1169" width="273" height="105"/>
  <rect id="Dikdörtgen_2-2" data-name="Dikdörtgen 2" x="1089" y="2082" width="220" height="105"/>
  <rect id="Dikdörtgen_2-3" data-name="Dikdörtgen 2" x="440" y="1941" width="220" height="105"/>
  <rect id="Dikdörtgen_3" data-name="Dikdörtgen 3" x="1539" y="1169" width="99" height="196"/>
  <rect id="Dikdörtgen_3-2" data-name="Dikdörtgen 3" x="341" y="1743" width="99" height="111"/>
  <rect id="Dikdörtgen_1-16" data-name="Dikdörtgen 1" x="995" y="587" width="700" height="160"/>
  <rect id="Dikdörtgen_1-17" data-name="Dikdörtgen 1" x="1350" y="142" width="900" height="150"/>
  <rect id="Dikdörtgen_1-18" data-name="Dikdörtgen 1" x="995" y="142" width="200" height="150"/>
</svg>
