<svg xmlns="http://www.w3.org/2000/svg" width="240" height="298" viewBox="0 0 240 298">
  <rect id="Dikdörtgen_1" data-name="Dikdörtgen 1" x="674" y="-1909" width="1000" height="155"/>
  <rect id="Dikdörtgen_1-2" data-name="Dikdörtgen 1" x="574" y="-1627" width="1254" height="160"/>
  <rect id="Dikdörtgen_1-3" data-name="Dikdörtgen 1" x="574" y="-1477" width="1254" height="160"/>
  <rect id="Dikdörtgen_1-4" data-name="Dikdörtgen 1" x="574" y="-1167" width="1100" height="150"/>
  <rect id="Dikdörtgen_1-5" data-name="Dikdörtgen 1" x="429" y="-1027" width="550" height="160"/>
  <rect id="Dikdörtgen_1-6" data-name="Dikdörtgen 1" x="329" y="-877" width="650" height="160"/>
  <rect id="Dikdörtgen_1-7" data-name="Dikdörtgen 1" x="198" y="-740" width="775" height="150"/>
  <rect id="Dikdörtgen_1-8" data-name="Dikdörtgen 1" x="-33" y="-601" width="1008" height="150"/>
  <rect id="Dikdörtgen_1-9" data-name="Dikdörtgen 1" x="-134" y="-463" width="1008" height="160"/>
  <rect id="Dikdörtgen_1-10" data-name="Dikdörtgen 1" x="518" y="-163" width="250" height="153"/>
  <rect id="Dikdörtgen_1-11" data-name="Dikdörtgen 1" x="16" y="-163" width="300" height="150"/>
  <rect id="Dikdörtgen_1-12" data-name="Dikdörtgen 1" x="16" y="-19" width="175" height="150"/>
  <rect id="Dikdörtgen_1-13" data-name="Dikdörtgen 1" x="16" y="125" width="100" height="150"/>
  <rect id="Dikdörtgen_1-14" data-name="Dikdörtgen 1" x="666" y="-19" width="100" height="300"/>
  <rect id="Dikdörtgen_1-15" data-name="Dikdörtgen 1" x="-134" y="-316" width="904" height="180"/>
  <rect id="Dikdörtgen_4" data-name="Dikdörtgen 4" x="-180" y="-749" width="151" height="618"/>
  <rect id="Dikdörtgen_4-2" data-name="Dikdörtgen 4" x="-326" y="-864" width="151" height="618"/>
  <rect id="Dikdörtgen_4-3" data-name="Dikdörtgen 4" x="-421" y="-1026" width="100" height="700"/>
  <rect id="Dikdörtgen_2" data-name="Dikdörtgen 2" x="923" y="-740" width="273" height="105"/>
  <rect id="Dikdörtgen_2-2" data-name="Dikdörtgen 2" x="668" y="173" width="220" height="105"/>
  <rect id="Dikdörtgen_2-3" data-name="Dikdörtgen 2" x="16" y="199" width="220" height="105"/>
  <rect id="Dikdörtgen_3" data-name="Dikdörtgen 3" x="1118" y="-740" width="99" height="196"/>
  <rect id="Dikdörtgen_3-2" data-name="Dikdörtgen 3" x="-80" y="-166" width="99" height="111"/>
  <rect id="Dikdörtgen_1-16" data-name="Dikdörtgen 1" x="574" y="-1322" width="700" height="160"/>
  <rect id="Dikdörtgen_1-17" data-name="Dikdörtgen 1" x="929" y="-1767" width="900" height="150"/>
  <rect id="Dikdörtgen_1-18" data-name="Dikdörtgen 1" x="574" y="-1767" width="200" height="150"/>
</svg>
